<svg width="32" height="32" viewBox="0 0 32 32" fill="none" xmlns="http://www.w3.org/2000/svg">
<path fill-rule="evenodd" clip-rule="evenodd" d="M16.0002 1.33333C7.90027 1.33333 1.33398 7.89961 1.33398 15.9995C1.33398 24.0995 7.90027 30.6657 16.0002 30.6657C24.1001 30.6657 30.6664 24.0995 30.6664 15.9995C30.6664 7.89961 24.1001 1.33333 16.0002 1.33333ZM17.5002 10V8.49999H14.5002V10V15.9998V17.4998H17.5002V15.9998V10ZM17.5002 21.9993C17.5002 21.1709 16.8286 20.4993 16.0002 20.4993C15.1717 20.4993 14.5002 21.1709 14.5002 21.9993V22.666C14.5002 23.4944 15.1717 24.166 16.0002 24.166C16.8286 24.166 17.5002 23.4944 17.5002 22.666V21.9993Z" fill="#BF3535"/>
</svg>
