<svg width="20" height="20" viewBox="0 0 20 20" xmlns="http://www.w3.org/2000/svg">
<path fill-rule="evenodd" clip-rule="evenodd" d="M10.0007 0.833336C4.93804 0.833336 0.833984 4.93739 0.833984 10C0.833984 15.0626 4.93804 19.1667 10.0007 19.1667C15.0633 19.1667 19.1673 15.0626 19.1673 10C19.1673 4.93739 15.0633 0.833336 10.0007 0.833336ZM8.03098 6.96967C7.73809 6.67678 7.26321 6.67678 6.97032 6.96967C6.67743 7.26257 6.67743 7.73744 6.97032 8.03033L8.93999 10L6.97032 11.9697C6.67743 12.2626 6.67743 12.7374 6.97032 13.0303C7.26321 13.3232 7.73809 13.3232 8.03098 13.0303L10.0007 11.0607L11.9703 13.0303C12.2632 13.3232 12.7381 13.3232 13.031 13.0303C13.3239 12.7374 13.3239 12.2626 13.031 11.9697L11.0613 10L13.031 8.03033C13.3239 7.73744 13.3239 7.26257 13.031 6.96967C12.7381 6.67678 12.2632 6.67678 11.9703 6.96967L10.0007 8.93934L8.03098 6.96967Z" />
</svg>
