<svg width="39" height="39" viewBox="0 0 39 39" fill="none" xmlns="http://www.w3.org/2000/svg">
<path d="M38.9439 17.5387L23.7268 26.0855L28.3085 28.918L38.6859 23.2892C37.7983 27.705 35.4017 31.6782 31.9036 34.533C28.4056 37.3878 24.0222 38.9479 19.4991 38.9479C14.9761 38.9479 10.5927 37.3878 7.09462 34.533C3.59658 31.6782 1.19992 27.705 0.312363 23.2892L10.7725 28.8488L15.2681 26.0855L0.0510254 17.5387C0.196381 16.0463 0.517255 14.5761 1.00706 13.1582L19.4826 23.6581L37.9879 13.1549C38.4777 14.5728 38.7986 16.043 38.9439 17.5354V17.5387Z" />
<path d="M19.5068 0.000488281L2.74487 9.43659H13.592V15.5956L19.4076 18.8957L25.372 15.5099V9.43659H36.0769L36.2225 9.35425L19.5068 0.000488281Z" />
</svg>
