<svg width="116" height="24" viewBox="0 0 116 24" fill="none" xmlns="http://www.w3.org/2000/svg">
<path d="M12.6828 9.3003C13.7448 9.53878 14.6854 10.1553 15.3316 11.0364C15.9674 11.9439 16.2955 13.0336 16.2671 14.1436C16.2853 14.896 16.144 15.6436 15.8527 16.3367C15.5613 17.0298 15.1265 17.6524 14.5773 18.1631C13.3716 19.2552 11.7894 19.8297 10.1686 19.7638H0.871765V0.74353H9.73592C11.4939 0.74353 12.8582 1.21629 13.8289 2.16181C14.2911 2.5764 14.6604 3.08516 14.9125 3.65435C15.1645 4.22354 15.2934 4.84014 15.2906 5.46328C15.291 6.3028 15.0404 7.123 14.5714 7.81728C14.1257 8.51145 13.4603 9.03397 12.6828 9.3003ZM8.84131 4.78652H5.56111V8.01148H8.63666C9.15736 8.04692 9.67244 7.88531 10.0809 7.55834C10.2455 7.41141 10.3759 7.22976 10.4628 7.02632C10.5497 6.82289 10.591 6.60267 10.5837 6.38135C10.5862 6.16895 10.5449 5.95835 10.4623 5.76285C10.3798 5.56735 10.2579 5.39121 10.1043 5.24554C9.93403 5.0893 9.73487 4.96834 9.51817 4.88958C9.30146 4.81082 9.07147 4.7758 8.84131 4.78652ZM5.56111 15.6384H9.14536C9.74242 15.682 10.3325 15.4875 10.7884 15.097C10.9756 14.9285 11.1247 14.7215 11.2256 14.49C11.3264 14.2586 11.3767 14.008 11.3731 13.7552C11.3767 13.499 11.3265 13.245 11.2257 13.0097C11.1249 12.7744 10.9759 12.5632 10.7884 12.3899C10.3661 12.0136 9.81389 11.8191 9.25061 11.8485H5.56111V15.6384Z" />
<path d="M27.9157 20.0764C26.6033 20.1068 25.2984 19.8696 24.0795 19.3791C22.8606 18.8886 21.753 18.1549 20.8232 17.2222C19.0037 15.3523 17.9846 12.8393 17.9846 10.222C17.9846 7.60472 19.0037 5.09166 20.8232 3.2218C22.7194 1.38729 25.2475 0.362671 27.8777 0.362671C30.5079 0.362671 33.036 1.38729 34.9322 3.2218C36.3196 4.60197 37.2651 6.36833 37.647 8.29371C38.0289 10.2191 37.8298 12.2154 37.0753 14.026C36.3207 15.8366 35.0453 17.3785 33.413 18.4536C31.7807 19.5287 29.8662 20.0877 27.9157 20.0587V20.0764ZM27.9157 15.3037C28.5671 15.3159 29.2142 15.1943 29.8174 14.9464C30.4205 14.6985 30.9672 14.3295 31.4239 13.8619C31.8971 13.3865 32.2684 12.8184 32.5148 12.1929C32.7612 11.5673 32.8775 10.8975 32.8565 10.2249C32.8637 9.55036 32.736 8.88122 32.4808 8.25739C32.2256 7.63357 31.8483 7.06783 31.3713 6.5939C30.912 6.12772 30.3655 5.75769 29.7634 5.50518C29.1612 5.25266 28.5154 5.12266 27.8631 5.12266C27.2108 5.12266 26.5649 5.25266 25.9628 5.50518C25.3607 5.75769 24.8142 6.12772 24.3548 6.5939C23.4406 7.57556 22.9318 8.87062 22.9318 10.2161C22.9318 11.5616 23.4406 12.8567 24.3548 13.8383C24.8115 14.3143 25.3609 14.6901 25.9686 14.9422C26.5763 15.1944 27.2293 15.3175 27.8865 15.3037H27.9157Z" />
<path d="M49.3539 20.0467C48.0763 20.0832 46.8042 19.8626 45.6124 19.3977C44.4206 18.9328 43.333 18.2331 42.4134 17.3396C41.4866 16.4222 40.7598 15.3203 40.2796 14.1044C39.7994 12.8885 39.5763 11.5852 39.6244 10.2777C39.587 8.97343 39.8129 7.67511 40.2885 6.46129C40.764 5.24746 41.4793 4.14336 42.391 3.2158C43.3028 2.28825 44.392 1.55651 45.5929 1.06488C46.7937 0.573257 48.0811 0.331957 49.3773 0.355586C50.9915 0.336692 52.5895 0.680491 54.055 1.36192C55.4109 1.99385 56.5931 2.94937 57.4989 4.14552L54.4525 7.3646C52.9869 5.79527 51.3984 5.01061 49.6872 5.01061C49.008 4.99508 48.3329 5.11969 47.7034 5.37677C47.0739 5.63385 46.5033 6.01795 46.0269 6.5054C45.5443 7.00698 45.1664 7.60071 44.9153 8.25161C44.6643 8.9025 44.5452 9.59739 44.5652 10.2953C44.5468 10.9816 44.6669 11.6645 44.9181 12.3027C45.1694 12.941 45.5466 13.5214 46.0269 14.0087C46.5032 14.4882 47.0709 14.8657 47.696 15.1185C48.321 15.3714 48.9904 15.4943 49.6638 15.48C50.607 15.4717 51.5357 15.2462 52.379 14.8208C53.2222 14.3955 53.9575 13.7815 54.5286 13.026L57.7035 16.0979C56.7617 17.3037 55.5628 18.2811 54.1953 18.958C52.6897 19.701 51.0305 20.0741 49.3539 20.0467Z" />
<path d="M63.4113 19.7638H57.8507L63.7446 10.1595L58.3419 0.74353H63.8439L66.8435 6.56966L70.1237 0.74353H75.6784L69.8898 10.1595L75.5498 19.7756H70.0711L66.7909 13.767L63.4113 19.7638Z" />
<path d="M85.4639 20.0769C84.1515 20.107 82.8467 19.8697 81.6279 19.3792C80.409 18.8887 79.3014 18.1552 78.3714 17.2227C76.5519 15.3529 75.5328 12.8398 75.5328 10.2225C75.5328 7.60527 76.5519 5.09221 78.3714 3.22235C80.2686 1.38746 82.7976 0.362671 85.4288 0.362671C88.0599 0.362671 90.589 1.38746 92.4862 3.22235C93.8756 4.60425 94.8218 6.37336 95.2028 8.30157C95.5839 10.2298 95.3823 12.2287 94.6241 14.0405C93.8659 15.8523 92.5859 17.394 90.949 18.4668C89.3121 19.5396 87.3935 20.0943 85.4405 20.0593L85.4639 20.0769ZM85.4639 15.3042C86.1154 15.3171 86.7626 15.1959 87.3659 14.9479C87.9692 14.7 88.5158 14.3306 88.9721 13.8624C89.4461 13.3873 89.8183 12.8195 90.0657 12.1939C90.3131 11.5684 90.4304 10.8985 90.4105 10.2255C90.4164 9.55109 90.2881 8.88234 90.033 8.2587C89.7779 7.63507 89.4013 7.06918 88.9253 6.59445C88.466 6.12826 87.9195 5.75824 87.3174 5.50572C86.7153 5.25321 86.0694 5.1232 85.4171 5.1232C84.7648 5.1232 84.1189 5.25321 83.5168 5.50572C82.9147 5.75824 82.3682 6.12826 81.9089 6.59445C80.9946 7.5761 80.4859 8.87116 80.4859 10.2167C80.4859 11.5621 80.9946 12.8572 81.9089 13.8389C82.3646 14.3159 82.9139 14.6925 83.5218 14.9448C84.1297 15.197 84.7831 15.3194 85.4405 15.3042H85.4639Z"/>
<path d="M113.127 0.74366V15.3325H115.202V23.6598H110.437V19.7934H100.959V23.6598H96.1703V15.3031H97.9244C99.2419 12.7804 100.189 8.81197 100.766 3.39779L101.076 0.714233L113.127 0.74366ZM102.859 15.3325H108.367V5.22802H105.216L105.034 6.46386C104.631 9.48106 103.901 12.445 102.859 15.3031V15.3325Z" />
</svg>
