<svg width="66" height="66" viewBox="0 0 66 66" fill="none" xmlns="http://www.w3.org/2000/svg">
<g filter="url(#filter0_d_1975_66526)">
<path fill-rule="evenodd" clip-rule="evenodd" d="M45.1197 27.0792C45.2979 26.4852 45.1197 26.0693 44.288 26.0693H41.5157C40.8028 26.0693 40.486 26.4456 40.3078 26.8614C40.3078 26.8614 38.9018 30.307 36.9018 32.5248C36.2484 33.1782 35.9711 33.3763 35.6147 33.3763C35.4365 33.3763 35.1791 33.1782 35.1791 32.5842V27.0792C35.1791 26.3664 34.981 26.0693 34.387 26.0693H30.0306C29.5949 26.0693 29.3177 26.406 29.3177 26.703C29.3177 27.3763 30.3078 27.5347 30.4266 29.3961V33.4753C30.4266 34.3664 30.2682 34.5248 29.9117 34.5248C28.981 34.5248 26.684 31.0792 25.3375 27.1188C25.0603 26.3862 24.8028 26.0693 24.09 26.0693H21.3177C20.5256 26.0693 20.3672 26.4456 20.3672 26.8614C20.3672 27.5941 21.2979 31.2377 24.7434 36.0495C27.0405 39.3367 30.2682 41.1188 33.1989 41.1188C34.9612 41.1188 35.1791 40.7228 35.1791 40.0495V37.5545C35.1791 36.7624 35.3375 36.604 35.9117 36.604C36.3276 36.604 37.0207 36.802 38.6642 38.3862C40.5454 40.2674 40.8622 41.1188 41.9117 41.1188H44.684C45.4761 41.1188 45.8721 40.7228 45.6345 39.9505C45.3771 39.1782 44.486 38.0495 43.2979 36.703C42.6444 35.9307 41.6741 35.1188 41.3969 34.703C40.981 34.1683 41.0999 33.9307 41.3969 33.4753C41.3969 33.4555 44.783 28.703 45.1197 27.0792Z" fill="white"/>
<rect x="13" y="13" width="40" height="40" rx="20" stroke="white" stroke-width="2" shape-rendering="crispEdges"/>
</g>
<defs>
<filter id="filter0_d_1975_66526" x="0.863291" y="0.863291" width="64.2734" height="64.2734" filterUnits="userSpaceOnUse" color-interpolation-filters="sRGB">
<feFlood flood-opacity="0" result="BackgroundImageFix"/>
<feColorMatrix in="SourceAlpha" type="matrix" values="0 0 0 0 0 0 0 0 0 0 0 0 0 0 0 0 0 0 127 0" result="hardAlpha"/>
<feOffset/>
<feGaussianBlur stdDeviation="5.56835"/>
<feComposite in2="hardAlpha" operator="out"/>
<feColorMatrix type="matrix" values="0 0 0 0 0 0 0 0 0 0 0 0 0 0 0 0 0 0 0.3 0"/>
<feBlend mode="normal" in2="BackgroundImageFix" result="effect1_dropShadow_1975_66526"/>
<feBlend mode="normal" in="SourceGraphic" in2="effect1_dropShadow_1975_66526" result="shape"/>
</filter>
</defs>
</svg>
