<svg width="42" height="42" viewBox="0 0 42 42" fill="none" xmlns="http://www.w3.org/2000/svg">
<path d="M21 10.231C15.0619 10.231 10.2308 15.0621 10.2308 21.0002C10.2308 22.8544 10.7098 24.6776 11.6181 26.2865L10.2481 31.1748C10.2032 31.3354 10.2467 31.5077 10.3628 31.6271C10.4523 31.7193 10.574 31.7694 10.699 31.7694C10.7365 31.7694 10.7744 31.7647 10.8114 31.7558L15.9132 30.4921C17.471 31.3283 19.2254 31.7694 21 31.7694C26.938 31.7694 31.7692 26.9382 31.7692 21.0002C31.7692 15.0621 26.938 10.231 21 10.231ZM26.4174 24.8003C26.187 25.438 25.082 26.0201 24.551 26.0982C24.0743 26.168 23.4713 26.198 22.8092 25.9901C22.4079 25.8637 21.8929 25.696 21.2332 25.4146C18.4599 24.2319 16.6488 21.4745 16.5102 21.2924C16.372 21.1102 15.3813 19.8123 15.3813 18.4689C15.3813 17.1256 16.0953 16.4649 16.3491 16.1915C16.6029 15.918 16.9021 15.8497 17.0865 15.8497C17.271 15.8497 17.455 15.852 17.6166 15.8595C17.7865 15.8679 18.0146 15.7954 18.2388 16.3282C18.4692 16.8751 19.0222 18.2184 19.0906 18.3556C19.1599 18.4924 19.2057 18.652 19.114 18.8342C19.0222 19.0163 18.9763 19.1301 18.8377 19.2898C18.6991 19.4494 18.5474 19.6456 18.4229 19.7683C18.2843 19.9045 18.1405 20.052 18.3016 20.3255C18.4627 20.5989 19.0175 21.4928 19.8397 22.2166C20.8956 23.1465 21.7866 23.435 22.0628 23.5717C22.3391 23.7084 22.5006 23.6855 22.6617 23.5033C22.8228 23.3207 23.3528 22.7059 23.5368 22.433C23.7208 22.16 23.9053 22.2049 24.1591 22.2962C24.4129 22.3871 25.7721 23.0473 26.0484 23.184C26.3246 23.3207 26.5091 23.3891 26.5784 23.5029C26.6477 23.6162 26.6477 24.1631 26.4174 24.8003Z" fill="white"/>
<rect x="1" y="1" width="40" height="40" rx="20" stroke="white" stroke-width="2"/>
</svg>
